<?xml version="1.0" encoding="utf-8"?>
<svg id="master-artboard" viewBox="0 0 1400 980" version="1.1" xmlns="http://www.w3.org/2000/svg" x="0px" y="0px" style="enable-background:new 0 0 1400 980;" width="1400px" height="980px"><g transform="matrix(9.8, 0, 0, 9.8, 210.00001352188514, 0.000004507294704581)"><g>
	<path d="M92.74,32.27c-0.21-4.58-0.94-7.7-2-10.44c-1.1-2.83-2.57-5.23-4.96-7.62c-2.39-2.39-4.79-3.86-7.62-4.96&#10;&#9;&#9;c-2.74-1.06-5.86-1.79-10.44-2C63.14,7.05,61.68,7,50,7S36.86,7.05,32.27,7.26c-4.58,0.21-7.7,0.94-10.44,2&#10;&#9;&#9;c-2.83,1.1-5.23,2.57-7.62,4.96c-2.39,2.39-3.86,4.79-4.96,7.62c-1.06,2.74-1.79,5.86-2,10.44C7.05,36.86,7,38.32,7,50&#10;&#9;&#9;c0,11.68,0.05,13.14,0.26,17.73c0.21,4.58,0.94,7.7,2,10.44c1.1,2.83,2.57,5.23,4.96,7.62c2.39,2.39,4.79,3.86,7.62,4.96&#10;&#9;&#9;c2.74,1.06,5.86,1.79,10.44,2C36.86,92.95,38.32,93,50,93s13.14-0.05,17.73-0.26c4.58-0.21,7.7-0.94,10.44-2&#10;&#9;&#9;c2.83-1.1,5.23-2.57,7.62-4.96c2.39-2.39,3.86-4.79,4.96-7.62c1.06-2.74,1.79-5.86,2-10.44C92.95,63.14,93,61.68,93,50&#10;&#9;&#9;C93,38.32,92.95,36.86,92.74,32.27z M85,67.38c-0.19,4.19-0.89,6.47-1.48,7.98c-0.78,2.01-1.71,3.44-3.22,4.94&#10;&#9;&#9;c-1.5,1.5-2.94,2.44-4.94,3.22c-1.52,0.59-3.79,1.29-7.98,1.48c-4.53,0.21-5.89,0.25-17.38,0.25S37.16,85.21,32.62,85&#10;&#9;&#9;c-4.19-0.19-6.47-0.89-7.98-1.48c-2.01-0.78-3.44-1.71-4.94-3.22c-1.5-1.5-2.44-2.94-3.22-4.94c-0.59-1.52-1.29-3.79-1.48-7.98&#10;&#9;&#9;c-0.21-4.53-0.25-5.89-0.25-17.38S14.79,37.16,15,32.62c0.19-4.19,0.89-6.47,1.48-7.98c0.78-2.01,1.71-3.44,3.22-4.94&#10;&#9;&#9;c1.5-1.5,2.94-2.44,4.94-3.22c1.52-0.59,3.79-1.29,7.98-1.48c4.53-0.21,5.89-0.25,17.38-0.25S62.84,14.79,67.38,15&#10;&#9;&#9;c4.19,0.19,6.47,0.89,7.98,1.48c2.01,0.78,3.44,1.71,4.94,3.22c1.5,1.5,2.44,2.94,3.22,4.94c0.59,1.52,1.29,3.79,1.48,7.98&#10;&#9;&#9;c0.21,4.53,0.25,5.89,0.25,17.38S85.21,62.84,85,67.38z" style="fill: rgb(255, 255, 255);"/>
	<path d="M50,27.92c-12.2,0-22.08,9.89-22.08,22.08c0,12.2,9.89,22.08,22.08,22.08S72.08,62.2,72.08,50&#10;&#9;&#9;C72.08,37.8,62.2,27.92,50,27.92z M50,64.33c-7.92,0-14.33-6.42-14.33-14.33S42.08,35.67,50,35.67S64.33,42.08,64.33,50&#10;&#9;&#9;S57.92,64.33,50,64.33z" style="fill: rgb(255, 255, 255);"/>
	<path d="M 78.109997 27.049999 A 5.16 5.16 0 0 1 72.949997 32.209999 A 5.16 5.16 0 0 1 67.789997 27.049999 A 5.16 5.16 0 0 1 72.949997 21.889999 A 5.16 5.16 0 0 1 78.109997 27.049999 Z" transform="matrix(0.9732 -0.2298 0.2298 0.9732 -4.2624 17.4849)" style="fill: rgb(255, 255, 255);"/>
</g></g></svg>