<?xml version="1.0" encoding="UTF-8" standalone="no"?>
<!DOCTYPE svg PUBLIC "-//W3C//DTD SVG 1.1//EN" "http://www.w3.org/Graphics/SVG/1.1/DTD/svg11.dtd">
<svg version="1.1" xmlns="http://www.w3.org/2000/svg" xmlns:xlink="http://www.w3.org/1999/xlink" preserveAspectRatio="xMidYMid meet" viewBox="0 0 640 640" width="64" height="64"><defs><path d="M325.66 0.3L329.42 0.59L333.16 1.03L336.87 1.61L340.56 2.33L344.22 3.19L347.84 4.19L351.43 5.33L354.97 6.6L358.46 8.01L361.89 9.55L365.27 11.23L368.59 13.04L371.85 14.98L375.03 17.05L378.14 19.25L381.17 21.58L384.12 24.03L386.98 26.61L389.75 29.32L392.42 32.15L395 35.1L397.46 38.17L399.82 41.36L402.07 44.67L404.2 48.1L404.97 49.33L405.77 50.53L406.61 51.7L407.48 52.83L408.38 53.93L409.32 54.99L410.28 56.03L411.27 57.02L412.3 57.98L413.35 58.91L414.42 59.8L415.53 60.65L416.65 61.47L417.8 62.25L418.98 62.99L420.17 63.69L421.39 64.36L422.62 64.98L423.87 65.57L425.14 66.12L426.43 66.63L427.73 67.09L429.05 67.52L430.38 67.9L431.72 68.25L433.08 68.55L434.44 68.8L435.82 69.02L437.2 69.19L438.59 69.32L439.99 69.4L441.39 69.44L442.8 69.44L444.21 69.38L445.63 69.29L447.04 69.14L448.46 68.95L449.87 68.72L451.29 68.43L452.7 68.1L453.9 67.8L455.1 67.51L456.31 67.24L457.52 66.99L458.73 66.74L459.94 66.52L461.16 66.31L462.38 66.12L463.6 65.94L464.82 65.78L466.04 65.63L467.26 65.5L468.49 65.38L469.71 65.28L470.94 65.19L472.17 65.12L473.4 65.07L474.63 65.03L475.85 65L477.08 64.99L478.31 65L479.54 65.02L480.77 65.06L482 65.11L483.23 65.18L484.45 65.27L485.68 65.36L486.9 65.48L488.13 65.61L489.35 65.75L490.57 65.92L491.79 66.09L493.01 66.28L494.22 66.49L495.44 66.71L496.65 66.95L497.86 67.21L499.07 67.47L500.27 67.76L501.47 68.06L505.36 69.14L509.17 70.37L512.89 71.74L516.54 73.24L520.09 74.88L523.56 76.66L526.93 78.55L530.21 80.58L533.39 82.72L536.48 84.97L539.46 87.34L542.34 89.81L545.12 92.39L547.78 95.07L550.34 97.85L552.79 100.71L555.12 103.67L557.34 106.71L559.43 109.83L561.41 113.02L563.26 116.29L564.99 119.63L566.59 123.04L568.06 126.5L569.39 130.03L570.6 133.6L571.66 137.23L572.58 140.9L573.37 144.62L574.01 148.38L574.5 152.17L574.85 155.99L575.04 159.83L575.08 163.7L574.97 167.59L574.7 171.5L574.27 175.42L573.68 179.34L572.92 183.27L572 187.2L571.67 188.61L571.38 190.03L571.14 191.45L570.95 192.87L570.81 194.29L570.71 195.7L570.66 197.12L570.65 198.53L570.69 199.93L570.77 201.33L570.9 202.72L571.07 204.11L571.29 205.49L571.54 206.85L571.84 208.21L572.19 209.56L572.57 210.89L573 212.21L573.46 213.52L573.97 214.8L574.52 216.08L575.1 217.33L575.73 218.57L576.4 219.79L577.1 220.98L577.84 222.16L578.62 223.31L579.44 224.44L580.29 225.55L581.18 226.63L582.11 227.68L583.07 228.7L584.07 229.7L585.1 230.67L586.17 231.61L587.27 232.51L588.4 233.39L589.57 234.22L590.77 235.03L592 235.8L591.9 235.8L592.95 236.43L594 237.08L595.03 237.74L596.06 238.41L597.08 239.1L598.09 239.79L599.09 240.5L600.08 241.22L601.06 241.95L602.03 242.7L602.99 243.45L603.94 244.22L604.88 245L605.81 245.79L606.73 246.6L607.64 247.41L608.54 248.23L609.43 249.07L610.31 249.92L611.18 250.77L612.04 251.64L612.88 252.52L613.72 253.41L614.54 254.31L615.36 255.22L616.16 256.14L616.95 257.07L617.73 258.01L618.5 258.97L619.25 259.93L620 260.9L620.73 261.88L621.45 262.87L622.16 263.87L622.86 264.87L623.54 265.89L624.21 266.92L624.87 267.95L625.52 269L626.15 270.05L628.14 273.56L629.97 277.12L631.64 280.72L633.15 284.36L634.51 288.04L635.71 291.74L636.75 295.46L637.65 299.21L638.39 302.98L638.98 306.75L639.42 310.54L639.71 314.32L639.85 318.11L639.85 321.89L639.7 325.66L639.41 329.42L638.97 333.16L638.39 336.87L637.67 340.56L636.81 344.22L635.81 347.84L634.67 351.43L633.4 354.97L631.99 358.46L630.45 361.89L628.77 365.27L626.96 368.59L625.02 371.85L622.95 375.03L620.75 378.14L618.42 381.17L615.97 384.12L613.39 386.98L610.68 389.75L607.85 392.42L604.9 395L601.83 397.46L598.64 399.82L595.33 402.07L591.9 404.2L590.67 404.97L589.47 405.77L588.3 406.61L587.17 407.48L586.07 408.38L585.01 409.32L583.97 410.28L582.98 411.27L582.02 412.3L581.09 413.35L580.2 414.42L579.35 415.53L578.53 416.65L577.75 417.8L577.01 418.98L576.31 420.17L575.64 421.39L575.02 422.62L574.43 423.87L573.88 425.14L573.37 426.43L572.91 427.73L572.48 429.05L572.1 430.38L571.75 431.72L571.45 433.08L571.2 434.44L570.98 435.82L570.81 437.2L570.68 438.59L570.6 439.99L570.56 441.39L570.56 442.8L570.62 444.21L570.71 445.63L570.86 447.04L571.05 448.46L571.28 449.87L571.57 451.29L571.9 452.7L572.2 453.9L572.48 455.1L572.75 456.3L573.01 457.51L573.24 458.72L573.47 459.93L573.68 461.14L573.87 462.35L574.04 463.57L574.21 464.79L574.35 466L574.48 467.22L574.6 468.45L574.7 469.67L574.78 470.89L574.85 472.12L574.91 473.34L574.95 474.57L574.97 475.79L574.98 477.02L574.97 478.24L574.95 479.47L574.91 480.69L574.86 481.92L574.79 483.14L574.71 484.37L574.61 485.59L574.49 486.81L574.36 488.03L574.22 489.25L574.06 490.47L573.88 491.68L573.69 492.9L573.48 494.11L573.26 495.32L573.02 496.53L572.77 497.73L572.5 498.94L572.22 500.14L571.92 501.34L570.84 505.23L569.61 509.03L568.25 512.76L566.74 516.4L565.1 519.96L563.33 523.42L561.43 526.8L559.41 530.08L557.27 533.26L555.02 536.35L552.65 539.33L550.18 542.21L547.6 544.99L544.92 547.66L542.15 550.22L539.28 552.66L536.33 555L533.29 557.21L530.17 559.31L526.97 561.29L523.7 563.14L520.37 564.87L516.96 566.47L513.5 567.94L509.97 569.28L506.4 570.48L502.77 571.55L499.1 572.47L495.38 573.26L491.62 573.9L487.84 574.39L484.02 574.74L480.17 574.93L476.3 574.98L472.41 574.87L468.5 574.6L464.58 574.17L460.66 573.58L456.73 572.82L452.8 571.9L451.39 571.57L449.97 571.28L448.55 571.04L447.13 570.85L445.71 570.71L444.3 570.61L442.88 570.56L441.47 570.55L440.07 570.59L438.67 570.67L437.28 570.8L435.89 570.97L434.51 571.19L433.15 571.44L431.79 571.74L430.44 572.09L429.11 572.47L427.79 572.9L426.48 573.36L425.2 573.87L423.92 574.42L422.67 575L421.43 575.63L420.21 576.3L419.02 577L417.84 577.74L416.69 578.52L415.56 579.34L414.45 580.19L413.37 581.08L412.32 582.01L411.3 582.97L410.3 583.97L409.33 585L408.39 586.07L407.49 587.17L406.61 588.3L405.78 589.47L404.97 590.67L404.2 591.9L403.57 592.95L402.92 594L402.26 595.03L401.59 596.06L400.9 597.08L400.21 598.09L399.5 599.09L398.78 600.08L398.05 601.06L397.3 602.03L396.55 602.99L395.78 603.94L395 604.88L394.21 605.81L393.4 606.73L392.59 607.64L391.77 608.54L390.93 609.43L390.08 610.31L389.23 611.18L388.36 612.04L387.48 612.88L386.59 613.72L385.69 614.54L384.78 615.36L383.86 616.16L382.93 616.95L381.99 617.73L381.03 618.5L380.07 619.25L379.1 620L378.12 620.73L377.13 621.45L376.13 622.16L375.13 622.86L374.11 623.54L373.08 624.21L372.05 624.87L371 625.52L369.95 626.15L366.44 628.14L362.88 629.97L359.28 631.64L355.64 633.15L351.96 634.51L348.26 635.71L344.54 636.75L340.79 637.65L337.02 638.39L333.25 638.98L329.46 639.42L325.68 639.71L321.89 639.85L318.11 639.85L314.34 639.7L310.58 639.41L306.84 638.97L303.13 638.39L299.44 637.67L295.78 636.81L292.16 635.81L288.57 634.67L285.03 633.4L281.54 631.99L278.11 630.45L274.73 628.77L271.41 626.96L268.15 625.02L264.97 622.95L261.86 620.75L258.83 618.42L255.88 615.97L253.02 613.39L250.25 610.68L247.58 607.85L245 604.9L242.54 601.83L240.18 598.64L237.93 595.33L235.8 591.9L235.03 590.67L234.23 589.47L233.39 588.3L232.52 587.17L231.62 586.07L230.68 585.01L229.72 583.97L228.73 582.98L227.7 582.02L226.65 581.09L225.58 580.2L224.47 579.35L223.35 578.53L222.2 577.75L221.02 577.01L219.83 576.31L218.61 575.64L217.38 575.02L216.13 574.43L214.86 573.88L213.57 573.37L212.27 572.91L210.95 572.48L209.62 572.1L208.28 571.75L206.92 571.45L205.56 571.2L204.18 570.98L202.8 570.81L201.41 570.68L200.01 570.6L198.61 570.56L197.2 570.56L195.79 570.62L194.37 570.71L192.96 570.86L191.54 571.05L190.13 571.28L188.71 571.57L187.3 571.9L186.1 572.2L184.9 572.48L183.7 572.75L182.49 573.01L181.28 573.24L180.07 573.47L178.86 573.68L177.65 573.87L176.43 574.04L175.21 574.21L174 574.35L172.78 574.48L171.55 574.6L170.33 574.7L169.11 574.78L167.88 574.85L166.66 574.91L165.43 574.95L164.21 574.97L162.98 574.98L161.76 574.97L160.53 574.95L159.31 574.91L158.08 574.86L156.86 574.79L155.63 574.71L154.41 574.61L153.19 574.49L151.97 574.36L150.75 574.22L149.53 574.06L148.32 573.88L147.1 573.69L145.89 573.48L144.68 573.26L143.47 573.02L142.27 572.77L141.06 572.5L139.86 572.22L138.66 571.92L134.77 570.84L130.97 569.61L127.24 568.25L123.6 566.74L120.04 565.1L116.58 563.33L113.2 561.43L109.92 559.41L106.74 557.27L103.65 555.02L100.67 552.65L97.79 550.18L95.01 547.6L92.34 544.92L89.78 542.15L87.34 539.28L85 536.33L82.79 533.29L80.69 530.17L78.71 526.97L76.86 523.7L75.13 520.37L73.53 516.96L72.06 513.5L70.72 509.97L69.52 506.4L68.45 502.77L67.53 499.1L66.74 495.38L66.1 491.62L65.61 487.84L65.26 484.02L65.07 480.17L65.02 476.3L65.13 472.41L65.4 468.5L65.83 464.58L66.42 460.66L67.18 456.73L68.1 452.8L68.44 451.39L68.72 449.97L68.96 448.55L69.16 447.13L69.3 445.71L69.4 444.3L69.46 442.88L69.46 441.47L69.43 440.07L69.35 438.66L69.22 437.27L69.05 435.88L68.84 434.51L68.58 433.14L68.28 431.78L67.94 430.43L67.55 429.1L67.13 427.78L66.66 426.48L66.15 425.19L65.61 423.91L65.02 422.66L64.39 421.42L63.73 420.2L63.02 419.01L62.28 417.83L61.5 416.68L60.68 415.55L59.83 414.44L58.93 413.36L58.01 412.31L57.04 411.29L56.04 410.29L55.01 409.32L53.94 408.39L52.84 407.48L51.71 406.61L50.54 405.77L49.33 404.97L48.1 404.2L47.05 403.57L46 402.92L44.97 402.26L43.94 401.59L42.92 400.9L41.91 400.21L40.91 399.5L39.92 398.78L38.94 398.05L37.97 397.3L37.01 396.55L36.06 395.78L35.12 395L34.19 394.21L33.27 393.4L32.36 392.59L31.46 391.77L30.57 390.93L29.69 390.08L28.82 389.23L27.96 388.36L27.12 387.48L26.28 386.59L25.46 385.69L24.64 384.78L23.84 383.86L23.05 382.93L22.27 381.99L21.5 381.03L20.75 380.07L20 379.1L19.27 378.12L18.55 377.13L17.84 376.13L17.14 375.13L16.46 374.11L15.79 373.08L15.13 372.05L14.48 371L13.85 369.95L11.86 366.44L10.03 362.88L8.36 359.28L6.85 355.64L5.49 351.96L4.29 348.26L3.25 344.54L2.35 340.79L1.61 337.02L1.02 333.25L0.58 329.46L0.29 325.68L0.15 321.89L0.15 318.11L0.3 314.34L0.59 310.58L1.03 306.84L1.61 303.13L2.33 299.44L3.19 295.78L4.19 292.16L5.33 288.57L6.6 285.03L8.01 281.54L9.55 278.11L11.23 274.73L13.04 271.41L14.98 268.15L17.05 264.97L19.25 261.86L21.58 258.83L24.03 255.88L26.61 253.02L29.32 250.25L32.15 247.58L35.1 245L38.17 242.54L41.36 240.18L44.67 237.93L48.1 235.8L49.33 235.03L50.53 234.23L51.7 233.4L52.84 232.53L53.94 231.63L55 230.69L56.04 229.73L57.04 228.73L58 227.71L58.92 226.66L59.82 225.59L60.67 224.48L61.49 223.36L62.27 222.21L63.01 221.03L63.71 219.84L64.38 218.62L65.01 217.39L65.59 216.14L66.14 214.87L66.65 213.58L67.12 212.28L67.54 210.96L67.93 209.63L68.27 208.28L68.57 206.93L68.83 205.56L69.04 204.19L69.21 202.8L69.34 201.41L69.42 200.01L69.46 198.61L69.45 197.2L69.4 195.79L69.3 194.38L69.15 192.96L68.96 191.54L68.72 190.13L68.43 188.71L68.1 187.3L67.8 186.1L67.52 184.9L67.25 183.7L66.99 182.49L66.76 181.28L66.53 180.07L66.32 178.86L66.13 177.65L65.96 176.43L65.79 175.21L65.65 174L65.52 172.78L65.4 171.55L65.3 170.33L65.22 169.11L65.15 167.88L65.09 166.66L65.05 165.43L65.03 164.21L65.02 162.98L65.03 161.76L65.05 160.53L65.09 159.31L65.14 158.08L65.21 156.86L65.29 155.63L65.39 154.41L65.51 153.19L65.64 151.97L65.78 150.75L65.94 149.53L66.12 148.32L66.31 147.1L66.52 145.89L66.74 144.68L66.98 143.47L67.23 142.27L67.5 141.06L67.78 139.86L68.08 138.66L69.16 134.77L70.39 130.97L71.75 127.24L73.26 123.6L74.9 120.04L76.67 116.58L78.57 113.2L80.59 109.92L82.73 106.74L84.98 103.65L87.35 100.67L89.82 97.79L92.4 95.01L95.08 92.34L97.85 89.78L100.72 87.34L103.67 85L106.71 82.79L109.83 80.69L113.03 78.71L116.3 76.86L119.63 75.13L123.04 73.53L126.5 72.06L130.03 70.72L133.6 69.52L137.23 68.45L140.9 67.53L144.62 66.74L148.38 66.1L152.16 65.61L155.98 65.26L159.83 65.07L163.7 65.02L167.59 65.13L171.5 65.4L175.42 65.83L179.34 66.42L183.27 67.18L187.2 68.1L188.61 68.44L190.03 68.73L191.45 68.97L192.87 69.17L194.29 69.31L195.71 69.42L197.12 69.47L198.53 69.48L199.94 69.44L201.34 69.36L202.73 69.24L204.12 69.07L205.5 68.86L206.87 68.6L208.23 68.3L209.57 67.96L210.91 67.58L212.23 67.15L213.53 66.68L214.82 66.18L216.1 65.63L217.35 65.04L218.59 64.41L219.81 63.75L221.01 63.04L222.18 62.3L223.33 61.52L224.46 60.7L225.57 59.84L226.65 58.95L227.7 58.02L228.72 57.06L229.72 56.06L230.68 55.02L231.62 53.95L232.52 52.85L233.39 51.71L234.23 50.54L235.03 49.34L235.8 48.1L236.43 47.05L237.08 46L237.74 44.97L238.41 43.94L239.1 42.92L239.79 41.91L240.5 40.91L241.22 39.92L241.95 38.94L242.7 37.97L243.45 37.01L244.22 36.06L245 35.12L245.79 34.19L246.6 33.27L247.41 32.36L248.23 31.46L249.07 30.57L249.92 29.69L250.77 28.82L251.64 27.96L252.52 27.12L253.41 26.28L254.31 25.46L255.22 24.64L256.14 23.84L257.07 23.05L258.01 22.27L258.97 21.5L259.93 20.75L260.9 20L261.88 19.27L262.87 18.55L263.87 17.84L264.87 17.14L265.89 16.46L266.92 15.79L267.95 15.13L269 14.48L270.05 13.85L273.56 11.86L277.12 10.03L280.72 8.36L284.36 6.85L288.04 5.49L291.74 4.29L295.46 3.25L299.21 2.35L302.98 1.61L306.75 1.02L310.54 0.58L314.32 0.29L318.11 0.15L321.89 0.15L325.66 0.3ZM317.78 54.15L316.11 54.29L314.44 54.49L312.79 54.76L311.15 55.09L309.52 55.48L307.91 55.93L306.32 56.44L304.74 57.02L303.19 57.65L301.66 58.35L300.16 59.1L298.69 59.91L297.24 60.78L295.83 61.71L294.45 62.7L293.1 63.74L291.79 64.84L290.52 66L289.3 67.21L288.11 68.47L286.97 69.79L285.88 71.16L284.83 72.59L283.84 74.07L282.9 75.6L281.19 78.36L279.4 81.05L277.53 83.66L275.58 86.2L273.57 88.67L271.48 91.06L269.32 93.37L267.1 95.61L264.82 97.77L262.47 99.85L260.06 101.84L257.6 103.76L255.08 105.59L252.51 107.34L249.88 109.01L247.21 110.59L244.5 112.08L241.74 113.49L238.93 114.81L236.09 116.04L233.21 117.18L230.3 118.23L227.35 119.19L224.37 120.06L221.37 120.83L218.34 121.51L215.28 122.1L212.2 122.59L209.11 122.98L205.99 123.27L202.86 123.46L199.72 123.56L196.57 123.55L193.41 123.44L190.24 123.23L187.07 122.91L183.9 122.49L180.73 121.97L177.56 121.34L174.4 120.6L173.87 120.47L173.33 120.34L172.8 120.22L172.27 120.11L171.73 120L171.19 119.9L170.65 119.81L170.11 119.72L169.57 119.64L169.03 119.57L168.49 119.5L167.95 119.45L167.41 119.39L166.86 119.35L166.32 119.31L165.78 119.28L165.23 119.25L164.69 119.23L164.14 119.22L163.6 119.22L163.06 119.22L162.51 119.23L161.97 119.24L161.42 119.26L160.88 119.29L160.34 119.33L159.79 119.37L159.25 119.42L158.71 119.48L158.17 119.54L157.62 119.61L157.08 119.69L156.54 119.77L156.01 119.86L155.47 119.95L154.93 120.06L154.39 120.17L153.86 120.29L153.33 120.41L152.79 120.54L151.05 121.01L149.34 121.56L147.68 122.16L146.04 122.83L144.45 123.56L142.9 124.34L141.38 125.18L139.91 126.08L138.48 127.03L137.1 128.04L135.76 129.09L134.47 130.19L133.22 131.34L132.02 132.53L130.87 133.77L129.77 135.04L128.72 136.36L127.72 137.72L126.78 139.11L125.89 140.53L125.05 141.99L124.27 143.48L123.55 145L122.89 146.55L122.28 148.13L121.74 149.72L121.25 151.35L120.83 152.99L120.47 154.65L120.18 156.33L119.95 158.02L119.79 159.73L119.69 161.45L119.67 163.18L119.71 164.92L119.82 166.67L120.01 168.42L120.26 170.18L120.6 171.94L121 173.7L121.75 176.87L122.39 180.04L122.93 183.21L123.36 186.39L123.68 189.56L123.9 192.74L124.02 195.9L124.03 199.06L123.94 202.2L123.76 205.34L123.47 208.46L123.09 211.56L122.6 214.64L122.03 217.7L121.35 220.74L120.58 223.75L119.72 226.74L118.76 229.69L117.72 232.61L116.58 235.5L115.35 238.34L114.03 241.15L112.62 243.92L111.13 246.64L109.55 249.32L107.88 251.95L106.13 254.52L104.3 257.05L102.38 259.52L100.38 261.93L98.3 264.28L96.14 266.57L93.9 268.8L91.59 270.96L89.19 273.05L86.72 275.07L84.18 277.02L81.56 278.89L78.87 280.69L76.1 282.4L75.62 282.69L75.15 282.98L74.67 283.27L74.21 283.58L73.75 283.89L73.29 284.2L72.83 284.52L72.38 284.85L71.94 285.18L71.5 285.51L71.06 285.85L70.63 286.2L70.2 286.56L69.78 286.91L69.36 287.28L68.95 287.64L68.54 288.02L68.14 288.4L67.74 288.78L67.34 289.17L66.95 289.56L66.57 289.96L66.19 290.37L65.82 290.77L65.45 291.19L65.09 291.61L64.73 292.03L64.37 292.46L64.03 292.89L63.69 293.32L63.35 293.77L63.02 294.21L62.69 294.66L62.37 295.11L62.06 295.57L61.75 296.04L61.45 296.5L61.15 296.97L60.86 297.45L60.57 297.93L59.69 299.5L58.89 301.08L58.15 302.69L57.48 304.32L56.89 305.95L56.36 307.6L55.9 309.27L55.51 310.94L55.19 312.61L54.94 314.3L54.75 315.98L54.63 317.67L54.57 319.36L54.58 321.04L54.65 322.72L54.79 324.39L54.99 326.06L55.26 327.71L55.59 329.35L55.98 330.98L56.43 332.59L56.94 334.18L57.52 335.76L58.15 337.31L58.85 338.84L59.6 340.34L60.41 341.81L61.28 343.26L62.21 344.67L63.2 346.05L64.24 347.4L65.34 348.71L66.5 349.98L67.71 351.2L68.97 352.39L70.29 353.53L71.66 354.62L73.09 355.67L74.57 356.66L76.1 357.6L78.86 359.31L81.55 361.11L84.17 362.98L86.72 364.92L89.19 366.94L91.58 369.03L93.89 371.19L96.13 373.41L98.29 375.7L100.37 378.05L102.37 380.46L104.29 382.92L106.12 385.44L107.87 388.02L109.54 390.64L111.12 393.32L112.62 396.04L114.02 398.8L115.35 401.61L116.58 404.45L117.72 407.33L118.77 410.25L119.73 413.2L120.59 416.18L121.37 419.19L122.05 422.22L122.63 425.28L123.11 428.36L123.5 431.46L123.79 434.58L123.99 437.71L124.08 440.86L124.07 444.01L123.96 447.17L123.74 450.34L123.43 453.52L123 456.69L122.48 459.86L121.84 463.03L121.1 466.2L120.96 466.74L120.84 467.27L120.72 467.81L120.6 468.35L120.49 468.89L120.39 469.43L120.3 469.97L120.21 470.51L120.13 471.06L120.06 471.6L119.99 472.15L119.93 472.69L119.88 473.24L119.83 473.79L119.8 474.33L119.76 474.88L119.74 475.43L119.72 475.98L119.71 476.52L119.7 477.07L119.71 477.62L119.72 478.17L119.73 478.72L119.76 479.26L119.79 479.81L119.82 480.36L119.87 480.91L119.92 481.45L119.97 482L120.04 482.54L120.11 483.09L120.19 483.63L120.27 484.17L120.36 484.72L120.46 485.26L120.57 485.8L120.68 486.34L120.8 486.88L120.93 487.41L121.06 487.95L121.54 489.69L122.08 491.39L122.69 493.05L123.36 494.68L124.1 496.26L124.88 497.81L125.73 499.32L126.63 500.78L127.58 502.21L128.59 503.58L129.64 504.92L130.75 506.2L131.9 507.45L133.09 508.64L134.33 509.78L135.6 510.88L136.92 511.92L138.28 512.91L139.67 513.85L141.1 514.73L142.55 515.56L144.04 516.33L145.56 517.05L147.11 517.71L148.68 518.3L150.28 518.84L151.9 519.32L153.53 519.73L155.19 520.09L156.87 520.37L158.56 520.6L160.27 520.75L161.98 520.84L163.71 520.86L165.45 520.82L167.19 520.7L168.94 520.51L170.69 520.25L172.45 519.91L174.2 519.5L174.79 519.35L175.39 519.2L175.98 519.05L176.58 518.91L177.17 518.77L177.77 518.64L178.37 518.51L178.97 518.39L179.57 518.26L180.17 518.14L180.77 518.03L181.37 517.92L181.97 517.81L182.57 517.71L183.18 517.61L183.78 517.52L184.38 517.43L184.99 517.34L185.59 517.25L186.2 517.17L186.81 517.1L187.41 517.03L188.02 516.96L188.63 516.9L189.24 516.84L189.85 516.78L190.46 516.73L191.06 516.68L191.67 516.63L192.28 516.59L192.9 516.56L193.51 516.52L194.12 516.49L194.73 516.47L195.34 516.45L195.95 516.43L196.56 516.42L197.18 516.41L197.79 516.4L198.4 516.4L200.99 516.44L203.58 516.54L206.15 516.71L208.71 516.95L211.25 517.25L213.78 517.62L216.29 518.05L218.79 518.55L221.26 519.1L223.72 519.73L226.16 520.41L228.57 521.16L230.97 521.96L233.34 522.83L235.68 523.75L238 524.74L240.29 525.78L242.55 526.88L244.78 528.04L246.98 529.25L249.15 530.52L251.29 531.85L253.39 533.23L255.46 534.66L257.49 536.15L259.49 537.68L261.45 539.28L263.36 540.92L265.24 542.61L267.08 544.35L268.87 546.15L270.62 547.99L272.32 549.88L273.98 551.81L275.59 553.8L277.15 555.83L278.67 557.9L280.13 560.02L281.54 562.19L282.9 564.4L283.19 564.88L283.48 565.35L283.77 565.83L284.08 566.29L284.39 566.75L284.7 567.21L285.02 567.67L285.35 568.12L285.68 568.56L286.01 569L286.35 569.44L286.7 569.87L287.06 570.3L287.41 570.72L287.78 571.14L288.14 571.55L288.52 571.96L288.9 572.36L289.28 572.76L289.67 573.16L290.06 573.55L290.46 573.93L290.87 574.31L291.27 574.68L291.69 575.05L292.11 575.41L292.53 575.77L292.96 576.13L293.39 576.47L293.82 576.81L294.27 577.15L294.71 577.48L295.16 577.81L295.61 578.13L296.07 578.44L296.54 578.75L297 579.05L297.47 579.35L297.95 579.64L298.43 579.93L300 580.81L301.58 581.61L303.19 582.35L304.82 583.02L306.45 583.61L308.1 584.14L309.77 584.6L311.44 584.99L313.11 585.31L314.8 585.56L316.48 585.75L318.17 585.87L319.86 585.93L321.54 585.92L323.22 585.85L324.89 585.71L326.56 585.51L328.21 585.24L329.85 584.91L331.48 584.52L333.09 584.07L334.68 583.56L336.26 582.98L337.81 582.35L339.34 581.65L340.84 580.9L342.31 580.09L343.76 579.22L345.17 578.29L346.55 577.3L347.9 576.26L349.21 575.16L350.48 574L351.7 572.79L352.89 571.53L354.03 570.21L355.12 568.84L356.17 567.41L357.16 565.93L358.1 564.4L359.81 561.64L361.61 558.95L363.48 556.33L365.43 553.79L367.45 551.32L369.54 548.93L371.69 546.62L373.92 544.38L376.21 542.22L378.56 540.15L380.97 538.15L383.43 536.23L385.96 534.4L388.53 532.65L391.15 530.98L393.83 529.4L396.55 527.91L399.31 526.5L402.12 525.18L404.96 523.95L407.84 522.8L410.76 521.75L413.71 520.79L416.69 519.93L419.7 519.15L422.73 518.48L425.79 517.89L428.87 517.41L431.97 517.02L435.08 516.72L438.21 516.53L441.36 516.44L444.51 516.44L447.68 516.55L450.84 516.77L454.02 517.08L457.19 517.5L460.36 518.03L463.53 518.66L466.7 519.4L467.24 519.54L467.77 519.66L468.31 519.78L468.85 519.9L469.39 520.01L469.93 520.11L470.47 520.2L471.01 520.29L471.56 520.37L472.1 520.44L472.65 520.51L473.19 520.57L473.74 520.62L474.29 520.67L474.83 520.7L475.38 520.74L475.93 520.76L476.48 520.78L477.02 520.79L477.57 520.8L478.12 520.79L478.67 520.78L479.22 520.77L479.76 520.74L480.31 520.71L480.86 520.68L481.41 520.63L481.95 520.58L482.5 520.53L483.04 520.46L483.59 520.39L484.13 520.31L484.67 520.23L485.22 520.14L485.76 520.04L486.3 519.93L486.84 519.82L487.38 519.7L487.91 519.57L488.45 519.44L490.19 518.96L491.89 518.42L493.55 517.81L495.18 517.14L496.76 516.4L498.31 515.62L499.82 514.77L501.28 513.87L502.71 512.92L504.08 511.91L505.42 510.86L506.7 509.75L507.95 508.6L509.14 507.41L510.28 506.17L511.38 504.9L512.42 503.58L513.41 502.22L514.35 500.83L515.23 499.4L516.06 497.95L516.83 496.46L517.55 494.94L518.21 493.39L518.8 491.82L519.34 490.22L519.82 488.6L520.23 486.97L520.59 485.31L520.87 483.63L521.1 481.94L521.25 480.23L521.34 478.52L521.36 476.79L521.32 475.05L521.2 473.31L521.01 471.56L520.75 469.81L520.41 468.05L520 466.3L519.24 463.14L518.59 459.98L518.05 456.81L517.61 453.64L517.28 450.47L517.05 447.31L516.92 444.15L516.9 441L516.98 437.86L517.15 434.73L517.43 431.62L517.8 428.52L518.27 425.44L518.84 422.38L519.5 419.35L520.26 416.34L521.11 413.36L522.05 410.4L523.08 407.49L524.21 404.6L525.43 401.75L526.73 398.95L528.12 396.18L529.6 393.45L531.17 390.78L532.82 388.15L534.56 385.56L536.38 383.04L538.28 380.56L540.26 378.15L542.33 375.79L544.47 373.49L546.7 371.26L549 369.09L551.38 367L553.83 364.97L556.36 363.01L558.97 361.13L561.65 359.33L564.4 357.6L564.9 357.6L565.38 357.31L565.85 357.02L566.33 356.73L566.79 356.42L567.25 356.11L567.71 355.8L568.17 355.48L568.62 355.15L569.06 354.82L569.5 354.49L569.94 354.15L570.37 353.8L570.8 353.44L571.22 353.09L571.64 352.72L572.05 352.36L572.46 351.98L572.86 351.6L573.26 351.22L573.66 350.83L574.05 350.44L574.43 350.04L574.81 349.63L575.18 349.23L575.55 348.81L575.91 348.39L576.27 347.97L576.63 347.54L576.97 347.11L577.31 346.68L577.65 346.23L577.98 345.79L578.31 345.34L578.63 344.89L578.94 344.43L579.25 343.96L579.55 343.5L579.85 343.03L580.14 342.55L580.43 342.07L581.31 340.5L582.11 338.92L582.85 337.31L583.52 335.68L584.11 334.05L584.64 332.4L585.1 330.73L585.49 329.06L585.81 327.39L586.06 325.7L586.25 324.02L586.37 322.33L586.43 320.64L586.42 318.96L586.35 317.28L586.21 315.61L586.01 313.94L585.74 312.29L585.41 310.65L585.02 309.02L584.57 307.41L584.06 305.82L583.48 304.24L582.85 302.69L582.15 301.16L581.4 299.66L580.59 298.19L579.72 296.74L578.79 295.33L577.8 293.95L576.76 292.6L575.66 291.29L574.5 290.02L573.29 288.8L572.03 287.61L570.71 286.47L569.34 285.38L567.91 284.33L566.43 283.34L564.9 282.4L562.14 280.69L559.44 278.9L556.82 277.03L554.28 275.08L551.81 273.06L549.42 270.98L547.1 268.82L544.86 266.59L542.71 264.31L540.63 261.96L538.63 259.55L536.71 257.08L534.88 254.56L533.13 251.98L531.46 249.36L529.88 246.68L528.39 243.96L526.98 241.2L525.66 238.39L524.44 235.55L523.3 232.67L522.25 229.75L521.29 226.8L520.43 223.82L519.66 220.81L518.98 217.77L518.4 214.71L517.92 211.63L517.54 208.53L517.25 205.42L517.06 202.28L516.98 199.14L516.99 195.98L517.11 192.82L517.33 189.65L517.65 186.48L518.08 183.31L518.61 180.13L519.25 176.96L520 173.8L520.13 173.27L520.26 172.73L520.38 172.2L520.49 171.66L520.59 171.13L520.69 170.59L520.78 170.05L520.87 169.51L520.95 168.97L521.02 168.43L521.08 167.89L521.14 167.35L521.19 166.81L521.24 166.26L521.28 165.72L521.31 165.17L521.33 164.63L521.35 164.09L521.36 163.54L521.36 163L521.36 162.45L521.35 161.91L521.33 161.37L521.31 160.82L521.28 160.28L521.24 159.73L521.2 159.19L521.15 158.65L521.09 158.11L521.03 157.56L520.96 157.02L520.88 156.48L520.8 155.94L520.71 155.4L520.61 154.87L520.51 154.33L520.39 153.79L520.28 153.26L520.15 152.73L520.02 152.19L519.54 150.45L519 148.75L518.39 147.08L517.72 145.45L516.99 143.86L516.2 142.3L515.35 140.79L514.45 139.32L513.5 137.9L512.49 136.51L511.44 135.18L510.33 133.88L509.18 132.64L507.99 131.44L506.75 130.29L505.47 129.2L504.15 128.15L502.8 127.15L501.4 126.21L499.97 125.32L498.51 124.49L497.02 123.72L495.5 123L493.95 122.34L492.38 121.73L490.78 121.19L489.16 120.71L487.51 120.29L485.85 119.94L484.17 119.65L482.48 119.42L480.77 119.26L479.05 119.17L477.32 119.15L475.58 119.19L473.83 119.31L472.07 119.5L470.32 119.76L468.56 120.09L466.8 120.5L463.63 121.25L460.46 121.89L457.29 122.43L454.11 122.86L450.94 123.18L447.76 123.4L444.6 123.52L441.44 123.53L438.3 123.44L435.16 123.26L432.04 122.97L428.94 122.59L425.86 122.1L422.8 121.53L419.76 120.85L416.75 120.08L413.76 119.22L410.81 118.26L407.89 117.22L405 116.08L402.16 114.85L399.35 113.53L396.58 112.12L393.86 110.63L391.18 109.05L388.55 107.38L385.98 105.63L383.45 103.8L380.98 101.88L378.57 99.88L376.22 97.8L373.93 95.64L371.7 93.4L369.54 91.09L367.45 88.69L365.43 86.22L363.48 83.68L361.61 81.06L359.81 78.37L358.1 75.6L357.81 75.12L357.52 74.65L357.23 74.17L356.92 73.71L356.61 73.25L356.3 72.79L355.98 72.33L355.65 71.88L355.32 71.44L354.99 71L354.65 70.56L354.3 70.13L353.94 69.7L353.59 69.28L353.22 68.86L352.86 68.45L352.48 68.04L352.1 67.64L351.72 67.24L351.33 66.84L350.94 66.45L350.54 66.07L350.13 65.69L349.73 65.32L349.31 64.95L348.89 64.59L348.47 64.23L348.04 63.87L347.61 63.53L347.18 63.19L346.73 62.85L346.29 62.52L345.84 62.19L345.39 61.87L344.93 61.56L344.46 61.25L344 60.95L343.53 60.65L343.05 60.36L342.57 60.07L341 59.19L339.42 58.39L337.81 57.65L336.18 56.98L334.55 56.39L332.9 55.86L331.23 55.4L329.56 55.01L327.89 54.69L326.2 54.44L324.52 54.25L322.83 54.13L321.14 54.07L319.46 54.08L317.78 54.15Z" id="b3l8KQxq1"></path><path d="M331.09 185.16L336.54 185.72L341.93 186.5L347.25 187.48L352.49 188.67L357.66 190.06L362.74 191.64L367.73 193.42L372.63 195.39L377.43 197.53L382.14 199.86L386.74 202.36L391.22 205.03L395.6 207.87L399.85 210.87L403.99 214.02L408 217.33L411.87 220.79L415.61 224.39L419.21 228.13L422.67 232L425.98 236.01L429.13 240.15L432.13 244.4L434.97 248.78L437.64 253.26L440.14 257.86L442.47 262.57L444.61 267.37L446.58 272.27L448.36 277.26L449.94 282.34L451.33 287.51L452.52 292.75L453.5 298.07L454.28 303.46L454.84 308.91L455.18 314.43L455.3 320L455.19 325.58L454.85 331.1L454.3 336.55L453.53 341.95L452.55 347.27L451.37 352.51L449.98 357.68L448.4 362.77L446.63 367.76L444.67 372.66L442.52 377.47L440.2 382.18L437.7 386.78L435.03 391.27L432.19 395.65L429.19 399.91L426.04 404.04L422.73 408.05L419.27 411.93L415.67 415.67L411.93 419.27L408.05 422.73L404.04 426.04L399.91 429.19L395.65 432.19L391.27 435.03L386.78 437.7L382.18 440.2L377.47 442.52L372.66 444.67L367.76 446.63L362.77 448.4L357.68 449.98L352.51 451.37L347.27 452.55L341.95 453.53L336.55 454.3L331.1 454.85L325.58 455.19L320 455.3L314.42 455.19L308.9 454.85L303.45 454.3L298.05 453.53L292.73 452.55L287.49 451.37L282.32 449.98L277.23 448.4L272.24 446.63L267.34 444.67L262.53 442.52L257.82 440.2L253.22 437.7L248.73 435.03L244.35 432.19L240.09 429.19L235.96 426.04L231.95 422.73L228.07 419.27L224.33 415.67L220.73 411.93L217.27 408.05L213.96 404.04L210.81 399.91L207.81 395.65L204.97 391.27L202.3 386.78L199.8 382.18L197.48 377.47L195.33 372.66L193.37 367.76L191.6 362.77L190.02 357.68L188.63 352.51L187.45 347.27L186.47 341.95L185.7 336.55L185.15 331.1L184.81 325.58L184.7 320L184.81 314.42L185.15 308.9L185.7 303.45L186.47 298.05L187.45 292.73L188.63 287.49L190.02 282.32L191.6 277.23L193.37 272.24L195.33 267.34L197.48 262.53L199.8 257.82L202.3 253.22L204.97 248.73L207.81 244.35L210.81 240.09L213.96 235.96L217.27 231.95L220.73 228.07L224.33 224.33L228.07 220.73L231.95 217.27L235.96 213.96L240.09 210.81L244.35 207.81L248.73 204.97L253.22 202.3L257.82 199.8L262.53 197.48L267.34 195.33L272.24 193.37L277.23 191.6L282.32 190.02L287.49 188.63L292.73 187.45L298.05 186.47L303.45 185.7L308.9 185.15L314.42 184.81L320 184.7L325.57 184.82L331.09 185.16ZM313.34 239.07L310.06 239.4L306.83 239.86L303.64 240.45L300.49 241.16L297.39 241.99L294.33 242.94L291.34 244L288.39 245.18L285.51 246.47L282.68 247.86L279.92 249.36L277.23 250.97L274.6 252.67L272.04 254.47L269.56 256.36L267.16 258.35L264.83 260.42L262.58 262.58L260.42 264.83L258.35 267.16L256.36 269.56L254.47 272.04L252.67 274.6L250.97 277.23L249.36 279.92L247.86 282.68L246.47 285.51L245.18 288.39L244 291.34L242.94 294.33L241.99 297.39L241.16 300.49L240.45 303.64L239.86 306.83L239.4 310.06L239.07 313.34L238.87 316.65L238.8 320L238.87 323.35L239.07 326.66L239.4 329.94L239.86 333.17L240.45 336.36L241.16 339.51L241.99 342.61L242.94 345.67L244 348.66L245.18 351.61L246.47 354.49L247.86 357.32L249.36 360.08L250.97 362.77L252.67 365.4L254.47 367.96L256.36 370.44L258.35 372.84L260.42 375.17L262.58 377.42L264.83 379.58L267.16 381.65L269.56 383.64L272.04 385.53L274.6 387.33L277.23 389.03L279.92 390.64L282.68 392.14L285.51 393.53L288.39 394.82L291.34 396L294.33 397.06L297.39 398.01L300.49 398.84L303.64 399.55L306.83 400.14L310.06 400.6L313.34 400.93L316.65 401.13L320 401.2L323.35 401.13L326.66 400.92L329.93 400.59L333.16 400.12L336.36 399.53L339.5 398.82L342.6 397.99L345.65 397.04L348.65 395.97L351.59 394.79L354.47 393.5L357.3 392.11L360.06 390.61L362.75 389L365.38 387.3L367.93 385.5L370.41 383.61L372.82 381.62L375.14 379.55L377.39 377.39L379.55 375.14L381.62 372.82L383.61 370.41L385.5 367.93L387.3 365.38L389 362.75L390.61 360.06L392.11 357.3L393.5 354.47L394.79 351.59L395.97 348.65L397.04 345.65L397.99 342.6L398.82 339.5L399.53 336.36L400.12 333.16L400.59 329.93L400.92 326.66L401.13 323.35L401.2 320L401.13 316.65L400.93 313.34L400.6 310.06L400.14 306.83L399.55 303.64L398.84 300.49L398.01 297.39L397.06 294.33L396 291.34L394.82 288.39L393.53 285.51L392.14 282.68L390.64 279.92L389.03 277.23L387.33 274.6L385.53 272.04L383.64 269.56L381.65 267.16L379.58 264.83L377.42 262.58L375.17 260.42L372.84 258.35L370.44 256.36L367.96 254.47L365.4 252.67L362.77 250.97L360.08 249.36L357.32 247.86L354.49 246.47L351.61 245.18L348.66 244L345.67 242.94L342.61 241.99L339.51 241.16L336.36 240.45L333.17 239.86L329.94 239.4L326.66 239.07L323.35 238.87L320 238.8L316.65 238.87L313.34 239.07Z" id="a1GHwNaHdr"></path></defs><g><g><g><use xlink:href="#b3l8KQxq1" opacity="1" fill="#fd4704" fill-opacity="1"></use><g><use xlink:href="#b3l8KQxq1" opacity="1" fill-opacity="0" stroke="#000000" stroke-width="1" stroke-opacity="0"></use></g></g><g><use xlink:href="#a1GHwNaHdr" opacity="1" fill="#fd4704" fill-opacity="1"></use><g><use xlink:href="#a1GHwNaHdr" opacity="1" fill-opacity="0" stroke="#000000" stroke-width="1" stroke-opacity="0"></use></g></g></g></g></svg>